<mxfile host="Electron" modified="2024-07-24T19:26:49.044Z" agent="Mozilla/5.0 (Windows NT 10.0; Win64; x64) AppleWebKit/537.36 (KHTML, like Gecko) draw.io/24.6.4 Chrome/124.0.6367.207 Electron/30.0.6 Safari/537.36" etag="Og1MJ1IqT8fOuwexN_5D" version="24.6.4" type="device" pages="6">
  <diagram id="2Ljtoce61eDNskAkwK6a" name="第 1 页">
    <mxGraphModel dx="5250" dy="3972" grid="1" gridSize="10" guides="1" tooltips="1" connect="1" arrows="1" fold="1" page="1" pageScale="1" pageWidth="1169" pageHeight="827" math="0" shadow="0">
      <root>
        <mxCell id="0" />
        <mxCell id="1" parent="0" />
        <mxCell id="6pcCOZOnAxVxgm8CoT2k-1" value="" style="group" vertex="1" connectable="0" parent="1">
          <mxGeometry x="390" y="-640" width="280" height="410" as="geometry" />
        </mxCell>
        <mxCell id="YVZfytfz0kr7cREePQxS-1" value="&lt;font face=&quot;Times New Roman&quot; style=&quot;font-size: 30px;&quot;&gt;1&lt;/font&gt;" style="ellipse;whiteSpace=wrap;html=1;aspect=fixed;fillColor=#346cac;strokeColor=#999999;" parent="6pcCOZOnAxVxgm8CoT2k-1" vertex="1">
          <mxGeometry width="50" height="50" as="geometry" />
        </mxCell>
        <mxCell id="YVZfytfz0kr7cREePQxS-2" value="&lt;font face=&quot;Times New Roman&quot; style=&quot;font-size: 30px;&quot;&gt;2&lt;/font&gt;" style="ellipse;whiteSpace=wrap;html=1;aspect=fixed;fillColor=#deeaea;strokeColor=#999999;" parent="6pcCOZOnAxVxgm8CoT2k-1" vertex="1">
          <mxGeometry y="70" width="50" height="50" as="geometry" />
        </mxCell>
        <mxCell id="YVZfytfz0kr7cREePQxS-3" value="&lt;font face=&quot;Times New Roman&quot; style=&quot;font-size: 30px;&quot;&gt;3&lt;/font&gt;" style="ellipse;whiteSpace=wrap;html=1;aspect=fixed;fillColor=#f7e474;strokeColor=#999999;" parent="6pcCOZOnAxVxgm8CoT2k-1" vertex="1">
          <mxGeometry y="140" width="50" height="50" as="geometry" />
        </mxCell>
        <mxCell id="YVZfytfz0kr7cREePQxS-4" value="&lt;font face=&quot;Times New Roman&quot; style=&quot;font-size: 30px;&quot;&gt;4&lt;/font&gt;" style="ellipse;whiteSpace=wrap;html=1;aspect=fixed;fillColor=#d8b23a;strokeColor=#999999;" parent="6pcCOZOnAxVxgm8CoT2k-1" vertex="1">
          <mxGeometry y="210" width="50" height="50" as="geometry" />
        </mxCell>
        <mxCell id="YVZfytfz0kr7cREePQxS-5" value="&lt;font face=&quot;Times New Roman&quot; style=&quot;font-size: 30px;&quot;&gt;5&lt;/font&gt;" style="ellipse;whiteSpace=wrap;html=1;aspect=fixed;fillColor=#f1cab9;strokeColor=#999999;" parent="6pcCOZOnAxVxgm8CoT2k-1" vertex="1">
          <mxGeometry y="280" width="50" height="50" as="geometry" />
        </mxCell>
        <mxCell id="YVZfytfz0kr7cREePQxS-6" value="&lt;font face=&quot;Times New Roman&quot; style=&quot;font-size: 30px;&quot;&gt;6&lt;/font&gt;" style="ellipse;whiteSpace=wrap;html=1;aspect=fixed;fillColor=#db7e6a;strokeColor=#999999;" parent="6pcCOZOnAxVxgm8CoT2k-1" vertex="1">
          <mxGeometry y="350" width="50" height="50" as="geometry" />
        </mxCell>
        <mxCell id="YVZfytfz0kr7cREePQxS-7" value="&lt;font face=&quot;Times New Roman&quot; style=&quot;font-size: 30px;&quot;&gt;7&lt;/font&gt;" style="ellipse;whiteSpace=wrap;html=1;aspect=fixed;fillColor=#79ced1;strokeColor=#999999;" parent="6pcCOZOnAxVxgm8CoT2k-1" vertex="1">
          <mxGeometry x="80" width="50" height="50" as="geometry" />
        </mxCell>
        <mxCell id="YVZfytfz0kr7cREePQxS-8" value="&lt;font face=&quot;Times New Roman&quot; style=&quot;font-size: 30px;&quot;&gt;8&lt;/font&gt;" style="ellipse;whiteSpace=wrap;html=1;aspect=fixed;fillColor=#007d7d;strokeColor=#999999;" parent="6pcCOZOnAxVxgm8CoT2k-1" vertex="1">
          <mxGeometry x="80" y="70" width="50" height="50" as="geometry" />
        </mxCell>
        <mxCell id="YVZfytfz0kr7cREePQxS-9" value="&lt;font face=&quot;Times New Roman&quot; style=&quot;font-size: 30px;&quot;&gt;9&lt;/font&gt;" style="ellipse;whiteSpace=wrap;html=1;aspect=fixed;fillColor=#f58722;strokeColor=#999999;" parent="6pcCOZOnAxVxgm8CoT2k-1" vertex="1">
          <mxGeometry x="80" y="140" width="50" height="50" as="geometry" />
        </mxCell>
        <mxCell id="YVZfytfz0kr7cREePQxS-10" value="&lt;font face=&quot;Times New Roman&quot; style=&quot;font-size: 30px;&quot;&gt;11&lt;/font&gt;" style="ellipse;whiteSpace=wrap;html=1;aspect=fixed;fillColor=#b88cc0;strokeColor=#999999;" parent="6pcCOZOnAxVxgm8CoT2k-1" vertex="1">
          <mxGeometry x="80" y="290" width="50" height="50" as="geometry" />
        </mxCell>
        <mxCell id="YVZfytfz0kr7cREePQxS-11" value="&lt;font face=&quot;Times New Roman&quot; style=&quot;font-size: 30px;&quot;&gt;12&lt;/font&gt;" style="ellipse;whiteSpace=wrap;html=1;aspect=fixed;fillColor=#699ed4;strokeColor=#999999;" parent="6pcCOZOnAxVxgm8CoT2k-1" vertex="1">
          <mxGeometry x="80" y="360" width="50" height="50" as="geometry" />
        </mxCell>
        <mxCell id="YVZfytfz0kr7cREePQxS-12" value="&lt;font face=&quot;Times New Roman&quot; style=&quot;font-size: 30px;&quot;&gt;13&lt;/font&gt;" style="ellipse;whiteSpace=wrap;html=1;aspect=fixed;fillColor=#fbe5d6;strokeColor=#999999;" parent="6pcCOZOnAxVxgm8CoT2k-1" vertex="1">
          <mxGeometry x="150" width="50" height="50" as="geometry" />
        </mxCell>
        <mxCell id="YVZfytfz0kr7cREePQxS-13" value="&lt;font face=&quot;Times New Roman&quot; style=&quot;font-size: 30px;&quot;&gt;14&lt;/font&gt;" style="ellipse;whiteSpace=wrap;html=1;aspect=fixed;fillColor=#fff2cc;strokeColor=#999999;" parent="6pcCOZOnAxVxgm8CoT2k-1" vertex="1">
          <mxGeometry x="160" y="80" width="50" height="50" as="geometry" />
        </mxCell>
        <mxCell id="YVZfytfz0kr7cREePQxS-14" value="&lt;font face=&quot;Times New Roman&quot; style=&quot;font-size: 30px;&quot;&gt;15&lt;/font&gt;" style="ellipse;whiteSpace=wrap;html=1;aspect=fixed;fillColor=#dae3f3;strokeColor=#999999;" parent="6pcCOZOnAxVxgm8CoT2k-1" vertex="1">
          <mxGeometry x="160" y="150" width="50" height="50" as="geometry" />
        </mxCell>
        <mxCell id="YVZfytfz0kr7cREePQxS-15" value="&lt;font face=&quot;Times New Roman&quot; style=&quot;font-size: 30px;&quot;&gt;16&lt;/font&gt;" style="ellipse;whiteSpace=wrap;html=1;aspect=fixed;fillColor=#e2f0d9;strokeColor=#999999;" parent="6pcCOZOnAxVxgm8CoT2k-1" vertex="1">
          <mxGeometry x="160" y="220" width="50" height="50" as="geometry" />
        </mxCell>
        <mxCell id="YVZfytfz0kr7cREePQxS-16" value="&lt;font face=&quot;Times New Roman&quot; style=&quot;font-size: 30px;&quot;&gt;17&lt;/font&gt;" style="ellipse;whiteSpace=wrap;html=1;aspect=fixed;fillColor=#ffff00;strokeColor=#999999;" parent="6pcCOZOnAxVxgm8CoT2k-1" vertex="1">
          <mxGeometry x="160" y="290" width="50" height="50" as="geometry" />
        </mxCell>
        <mxCell id="YVZfytfz0kr7cREePQxS-17" value="&lt;font face=&quot;Times New Roman&quot; style=&quot;font-size: 30px;&quot;&gt;18&lt;/font&gt;" style="ellipse;whiteSpace=wrap;html=1;aspect=fixed;fillColor=#92d050;strokeColor=#999999;" parent="6pcCOZOnAxVxgm8CoT2k-1" vertex="1">
          <mxGeometry x="160" y="360" width="50" height="50" as="geometry" />
        </mxCell>
        <mxCell id="YVZfytfz0kr7cREePQxS-18" value="&lt;font face=&quot;Times New Roman&quot; style=&quot;font-size: 30px;&quot;&gt;19&lt;/font&gt;" style="ellipse;whiteSpace=wrap;html=1;aspect=fixed;fillColor=#00b0f0;strokeColor=#999999;" parent="6pcCOZOnAxVxgm8CoT2k-1" vertex="1">
          <mxGeometry x="230" width="50" height="50" as="geometry" />
        </mxCell>
        <mxCell id="YVZfytfz0kr7cREePQxS-19" value="&lt;font face=&quot;Times New Roman&quot; style=&quot;font-size: 30px;&quot;&gt;20&lt;/font&gt;" style="ellipse;whiteSpace=wrap;html=1;aspect=fixed;fillColor=#79bdad;strokeColor=#999999;" parent="6pcCOZOnAxVxgm8CoT2k-1" vertex="1">
          <mxGeometry x="230" y="70" width="50" height="50" as="geometry" />
        </mxCell>
        <mxCell id="YVZfytfz0kr7cREePQxS-20" value="&lt;font face=&quot;Times New Roman&quot; style=&quot;font-size: 30px;&quot;&gt;21&lt;/font&gt;" style="ellipse;whiteSpace=wrap;html=1;aspect=fixed;fillColor=#adb9ca;strokeColor=#999999;" parent="6pcCOZOnAxVxgm8CoT2k-1" vertex="1">
          <mxGeometry x="230" y="140" width="50" height="50" as="geometry" />
        </mxCell>
        <mxCell id="YVZfytfz0kr7cREePQxS-21" value="&lt;font face=&quot;Times New Roman&quot; style=&quot;font-size: 30px;&quot;&gt;22&lt;/font&gt;" style="ellipse;whiteSpace=wrap;html=1;aspect=fixed;fillColor=#00c87d;strokeColor=#999999;" parent="6pcCOZOnAxVxgm8CoT2k-1" vertex="1">
          <mxGeometry x="230" y="210" width="50" height="50" as="geometry" />
        </mxCell>
        <mxCell id="YVZfytfz0kr7cREePQxS-22" value="&lt;font face=&quot;Times New Roman&quot; style=&quot;font-size: 30px;&quot;&gt;23&lt;/font&gt;" style="ellipse;whiteSpace=wrap;html=1;aspect=fixed;fillColor=#e19caa;strokeColor=#999999;" parent="6pcCOZOnAxVxgm8CoT2k-1" vertex="1">
          <mxGeometry x="230" y="280" width="50" height="50" as="geometry" />
        </mxCell>
        <mxCell id="YVZfytfz0kr7cREePQxS-23" value="&lt;font face=&quot;Times New Roman&quot; style=&quot;font-size: 30px;&quot;&gt;24&lt;/font&gt;" style="ellipse;whiteSpace=wrap;html=1;aspect=fixed;fillColor=#c7bd9b;strokeColor=#999999;" parent="6pcCOZOnAxVxgm8CoT2k-1" vertex="1">
          <mxGeometry x="230" y="350" width="50" height="50" as="geometry" />
        </mxCell>
        <mxCell id="YVZfytfz0kr7cREePQxS-24" value="&lt;font face=&quot;Times New Roman&quot; style=&quot;font-size: 30px;&quot;&gt;10&lt;/font&gt;" style="ellipse;whiteSpace=wrap;html=1;aspect=fixed;fillColor=#9dcee5;strokeColor=#999999;" parent="6pcCOZOnAxVxgm8CoT2k-1" vertex="1">
          <mxGeometry x="80" y="210" width="50" height="50" as="geometry" />
        </mxCell>
      </root>
    </mxGraphModel>
  </diagram>
  <diagram id="3K7Hyi7qWTgrAsoi6-YP" name="第 2 页">
    <mxGraphModel dx="3500" dy="2924" grid="1" gridSize="10" guides="1" tooltips="1" connect="1" arrows="1" fold="1" page="1" pageScale="1" pageWidth="1169" pageHeight="827" math="0" shadow="0">
      <root>
        <mxCell id="0" />
        <mxCell id="1" parent="0" />
        <mxCell id="VolzIt8k69EXtPjXpZq_-7" value="" style="edgeStyle=orthogonalEdgeStyle;rounded=0;orthogonalLoop=1;jettySize=auto;html=1;" parent="1" source="VolzIt8k69EXtPjXpZq_-1" target="VolzIt8k69EXtPjXpZq_-6" edge="1">
          <mxGeometry relative="1" as="geometry" />
        </mxCell>
        <mxCell id="VolzIt8k69EXtPjXpZq_-1" value="&lt;font face=&quot;Times New Roman&quot; style=&quot;font-size: 30px;&quot;&gt;2&lt;/font&gt;" style="ellipse;whiteSpace=wrap;html=1;aspect=fixed;fillColor=#deeaea;strokeColor=#999999;" parent="1" vertex="1">
          <mxGeometry x="40" y="-720" width="50" height="50" as="geometry" />
        </mxCell>
        <mxCell id="VolzIt8k69EXtPjXpZq_-9" value="" style="edgeStyle=orthogonalEdgeStyle;rounded=0;orthogonalLoop=1;jettySize=auto;html=1;" parent="1" source="VolzIt8k69EXtPjXpZq_-6" target="VolzIt8k69EXtPjXpZq_-8" edge="1">
          <mxGeometry relative="1" as="geometry" />
        </mxCell>
        <mxCell id="VolzIt8k69EXtPjXpZq_-6" value="&lt;font face=&quot;Times New Roman&quot; style=&quot;font-size: 30px;&quot;&gt;3&lt;/font&gt;" style="ellipse;whiteSpace=wrap;html=1;aspect=fixed;fillColor=#f7e474;strokeColor=#999999;" parent="1" vertex="1">
          <mxGeometry x="151" y="-720" width="50" height="50" as="geometry" />
        </mxCell>
        <mxCell id="VolzIt8k69EXtPjXpZq_-11" value="" style="edgeStyle=orthogonalEdgeStyle;rounded=0;orthogonalLoop=1;jettySize=auto;html=1;" parent="1" source="VolzIt8k69EXtPjXpZq_-8" target="VolzIt8k69EXtPjXpZq_-10" edge="1">
          <mxGeometry relative="1" as="geometry" />
        </mxCell>
        <mxCell id="VolzIt8k69EXtPjXpZq_-8" value="&lt;font face=&quot;Times New Roman&quot; style=&quot;font-size: 30px;&quot;&gt;6&lt;/font&gt;" style="ellipse;whiteSpace=wrap;html=1;aspect=fixed;fillColor=#db7e6a;strokeColor=#999999;" parent="1" vertex="1">
          <mxGeometry x="260" y="-720" width="50" height="50" as="geometry" />
        </mxCell>
        <mxCell id="VolzIt8k69EXtPjXpZq_-13" value="" style="edgeStyle=orthogonalEdgeStyle;rounded=0;orthogonalLoop=1;jettySize=auto;html=1;" parent="1" source="VolzIt8k69EXtPjXpZq_-10" target="VolzIt8k69EXtPjXpZq_-12" edge="1">
          <mxGeometry relative="1" as="geometry" />
        </mxCell>
        <mxCell id="VolzIt8k69EXtPjXpZq_-10" value="&lt;font face=&quot;Times New Roman&quot; style=&quot;font-size: 30px;&quot;&gt;7&lt;/font&gt;" style="ellipse;whiteSpace=wrap;html=1;aspect=fixed;fillColor=#79ced1;strokeColor=#999999;" parent="1" vertex="1">
          <mxGeometry x="370" y="-720" width="50" height="50" as="geometry" />
        </mxCell>
        <mxCell id="VolzIt8k69EXtPjXpZq_-12" value="&lt;font face=&quot;Times New Roman&quot; style=&quot;font-size: 30px;&quot;&gt;11&lt;/font&gt;" style="ellipse;whiteSpace=wrap;html=1;aspect=fixed;fillColor=#b88cc0;strokeColor=#999999;" parent="1" vertex="1">
          <mxGeometry x="480" y="-720" width="50" height="50" as="geometry" />
        </mxCell>
      </root>
    </mxGraphModel>
  </diagram>
  <diagram id="0_MSTlQL8MhDCfmtdpB4" name="第 3 页">
    <mxGraphModel dx="2625" dy="2400" grid="1" gridSize="10" guides="1" tooltips="1" connect="1" arrows="1" fold="1" page="1" pageScale="1" pageWidth="1169" pageHeight="827" math="0" shadow="0">
      <root>
        <mxCell id="0" />
        <mxCell id="1" parent="0" />
        <mxCell id="38aBOkj0rOaxUBF9oLnC-1" value="" style="group" vertex="1" connectable="0" parent="1">
          <mxGeometry x="300" y="-590" width="566" height="160" as="geometry" />
        </mxCell>
        <mxCell id="38aBOkj0rOaxUBF9oLnC-2" value="" style="edgeStyle=orthogonalEdgeStyle;rounded=0;orthogonalLoop=1;jettySize=auto;html=1;" edge="1" parent="38aBOkj0rOaxUBF9oLnC-1" source="38aBOkj0rOaxUBF9oLnC-3" target="38aBOkj0rOaxUBF9oLnC-7">
          <mxGeometry relative="1" as="geometry" />
        </mxCell>
        <mxCell id="38aBOkj0rOaxUBF9oLnC-3" value="&lt;font face=&quot;Times New Roman&quot; style=&quot;font-size: 30px;&quot;&gt;3&lt;/font&gt;" style="ellipse;whiteSpace=wrap;html=1;aspect=fixed;fillColor=#f7e474;strokeColor=#999999;" vertex="1" parent="38aBOkj0rOaxUBF9oLnC-1">
          <mxGeometry x="101" y="55" width="50" height="50" as="geometry" />
        </mxCell>
        <mxCell id="38aBOkj0rOaxUBF9oLnC-4" value="" style="edgeStyle=orthogonalEdgeStyle;rounded=0;orthogonalLoop=1;jettySize=auto;html=1;" edge="1" parent="38aBOkj0rOaxUBF9oLnC-1" source="38aBOkj0rOaxUBF9oLnC-5" target="38aBOkj0rOaxUBF9oLnC-3">
          <mxGeometry relative="1" as="geometry" />
        </mxCell>
        <mxCell id="38aBOkj0rOaxUBF9oLnC-5" value="&lt;font face=&quot;Times New Roman&quot; style=&quot;font-size: 30px;&quot;&gt;1&lt;/font&gt;" style="ellipse;whiteSpace=wrap;html=1;aspect=fixed;fillColor=#346cac;strokeColor=#999999;" vertex="1" parent="38aBOkj0rOaxUBF9oLnC-1">
          <mxGeometry y="55" width="50" height="50" as="geometry" />
        </mxCell>
        <mxCell id="38aBOkj0rOaxUBF9oLnC-6" value="" style="rounded=0;orthogonalLoop=1;jettySize=auto;html=1;exitX=1;exitY=0.5;exitDx=0;exitDy=0;entryX=0;entryY=0.5;entryDx=0;entryDy=0;" edge="1" parent="38aBOkj0rOaxUBF9oLnC-1" source="38aBOkj0rOaxUBF9oLnC-7" target="38aBOkj0rOaxUBF9oLnC-9">
          <mxGeometry relative="1" as="geometry" />
        </mxCell>
        <mxCell id="38aBOkj0rOaxUBF9oLnC-7" value="&lt;font face=&quot;Times New Roman&quot; style=&quot;font-size: 30px;&quot;&gt;4&lt;/font&gt;" style="ellipse;whiteSpace=wrap;html=1;aspect=fixed;fillColor=#d8b23a;strokeColor=#999999;" vertex="1" parent="38aBOkj0rOaxUBF9oLnC-1">
          <mxGeometry x="201" y="55" width="50" height="50" as="geometry" />
        </mxCell>
        <mxCell id="38aBOkj0rOaxUBF9oLnC-8" value="" style="edgeStyle=orthogonalEdgeStyle;rounded=0;orthogonalLoop=1;jettySize=auto;html=1;" edge="1" parent="38aBOkj0rOaxUBF9oLnC-1" source="38aBOkj0rOaxUBF9oLnC-9" target="38aBOkj0rOaxUBF9oLnC-14">
          <mxGeometry relative="1" as="geometry" />
        </mxCell>
        <mxCell id="38aBOkj0rOaxUBF9oLnC-9" value="&lt;font face=&quot;Times New Roman&quot; style=&quot;font-size: 30px;&quot;&gt;5&lt;/font&gt;" style="ellipse;whiteSpace=wrap;html=1;aspect=fixed;fillColor=#f1cab9;strokeColor=#999999;" vertex="1" parent="38aBOkj0rOaxUBF9oLnC-1">
          <mxGeometry x="320" width="50" height="50" as="geometry" />
        </mxCell>
        <mxCell id="38aBOkj0rOaxUBF9oLnC-10" value="" style="edgeStyle=orthogonalEdgeStyle;rounded=0;orthogonalLoop=1;jettySize=auto;html=1;" edge="1" parent="38aBOkj0rOaxUBF9oLnC-1" source="38aBOkj0rOaxUBF9oLnC-11" target="38aBOkj0rOaxUBF9oLnC-15">
          <mxGeometry relative="1" as="geometry" />
        </mxCell>
        <mxCell id="38aBOkj0rOaxUBF9oLnC-11" value="&lt;font face=&quot;Times New Roman&quot; style=&quot;font-size: 30px;&quot;&gt;10&lt;/font&gt;" style="ellipse;whiteSpace=wrap;html=1;aspect=fixed;fillColor=#9dcee5;strokeColor=#999999;" vertex="1" parent="38aBOkj0rOaxUBF9oLnC-1">
          <mxGeometry x="320" y="110" width="50" height="50" as="geometry" />
        </mxCell>
        <mxCell id="38aBOkj0rOaxUBF9oLnC-12" value="" style="rounded=0;orthogonalLoop=1;jettySize=auto;html=1;exitX=1;exitY=0.5;exitDx=0;exitDy=0;entryX=0;entryY=0.5;entryDx=0;entryDy=0;" edge="1" parent="38aBOkj0rOaxUBF9oLnC-1" source="38aBOkj0rOaxUBF9oLnC-7" target="38aBOkj0rOaxUBF9oLnC-11">
          <mxGeometry relative="1" as="geometry">
            <mxPoint x="300" y="140.76999999999998" as="sourcePoint" />
            <mxPoint x="386" y="66.76999999999998" as="targetPoint" />
          </mxGeometry>
        </mxCell>
        <mxCell id="38aBOkj0rOaxUBF9oLnC-13" value="" style="edgeStyle=orthogonalEdgeStyle;rounded=0;orthogonalLoop=1;jettySize=auto;html=1;" edge="1" parent="38aBOkj0rOaxUBF9oLnC-1" source="38aBOkj0rOaxUBF9oLnC-14" target="38aBOkj0rOaxUBF9oLnC-16">
          <mxGeometry relative="1" as="geometry" />
        </mxCell>
        <mxCell id="38aBOkj0rOaxUBF9oLnC-14" value="&lt;font face=&quot;Times New Roman&quot; style=&quot;font-size: 30px;&quot;&gt;8&lt;/font&gt;" style="ellipse;whiteSpace=wrap;html=1;aspect=fixed;fillColor=#007d7d;strokeColor=#999999;" vertex="1" parent="38aBOkj0rOaxUBF9oLnC-1">
          <mxGeometry x="420" width="50" height="50" as="geometry" />
        </mxCell>
        <mxCell id="38aBOkj0rOaxUBF9oLnC-15" value="&lt;font face=&quot;Times New Roman&quot; style=&quot;font-size: 30px;&quot;&gt;12&lt;/font&gt;" style="ellipse;whiteSpace=wrap;html=1;aspect=fixed;fillColor=#699ed4;strokeColor=#999999;" vertex="1" parent="38aBOkj0rOaxUBF9oLnC-1">
          <mxGeometry x="420" y="110" width="50" height="50" as="geometry" />
        </mxCell>
        <mxCell id="38aBOkj0rOaxUBF9oLnC-16" value="&lt;font face=&quot;Times New Roman&quot; style=&quot;font-size: 30px;&quot;&gt;9&lt;/font&gt;" style="ellipse;whiteSpace=wrap;html=1;aspect=fixed;fillColor=#f58722;strokeColor=#999999;" vertex="1" parent="38aBOkj0rOaxUBF9oLnC-1">
          <mxGeometry x="516" width="50" height="50" as="geometry" />
        </mxCell>
        <mxCell id="38aBOkj0rOaxUBF9oLnC-17" value="&lt;font style=&quot;font-size: 40px;&quot; face=&quot;Times New Roman&quot;&gt;…&lt;/font&gt;" style="text;html=1;align=center;verticalAlign=middle;resizable=0;points=[];autosize=1;strokeColor=none;fillColor=none;rotation=90;" vertex="1" parent="38aBOkj0rOaxUBF9oLnC-1">
          <mxGeometry x="325" y="50" width="60" height="60" as="geometry" />
        </mxCell>
      </root>
    </mxGraphModel>
  </diagram>
  <diagram id="Rt95LaulkdDJEDS7_PtT" name="第 4 页">
    <mxGraphModel dx="1456" dy="2400" grid="1" gridSize="10" guides="1" tooltips="1" connect="1" arrows="1" fold="1" page="1" pageScale="1" pageWidth="1169" pageHeight="827" math="0" shadow="0">
      <root>
        <mxCell id="0" />
        <mxCell id="1" parent="0" />
        <mxCell id="pOWq3kMjPfXp0oDAjZ03-1" value="" style="group" vertex="1" connectable="0" parent="1">
          <mxGeometry x="1330" y="-670" width="831" height="374" as="geometry" />
        </mxCell>
        <mxCell id="pOWq3kMjPfXp0oDAjZ03-2" value="" style="edgeStyle=orthogonalEdgeStyle;rounded=0;orthogonalLoop=1;jettySize=auto;html=1;" edge="1" parent="pOWq3kMjPfXp0oDAjZ03-1" source="pOWq3kMjPfXp0oDAjZ03-3" target="pOWq3kMjPfXp0oDAjZ03-6">
          <mxGeometry relative="1" as="geometry" />
        </mxCell>
        <mxCell id="pOWq3kMjPfXp0oDAjZ03-3" value="&lt;font face=&quot;Times New Roman&quot; style=&quot;font-size: 30px;&quot;&gt;0&lt;/font&gt;" style="ellipse;whiteSpace=wrap;html=1;aspect=fixed;fillColor=#66FFFF;strokeColor=#999999;gradientColor=none;" vertex="1" parent="pOWq3kMjPfXp0oDAjZ03-1">
          <mxGeometry y="186" width="50" height="50" as="geometry" />
        </mxCell>
        <mxCell id="pOWq3kMjPfXp0oDAjZ03-4" style="rounded=0;orthogonalLoop=1;jettySize=auto;html=1;exitX=1;exitY=0.5;exitDx=0;exitDy=0;entryX=0;entryY=0.5;entryDx=0;entryDy=0;" edge="1" parent="pOWq3kMjPfXp0oDAjZ03-1" source="pOWq3kMjPfXp0oDAjZ03-6" target="pOWq3kMjPfXp0oDAjZ03-8">
          <mxGeometry relative="1" as="geometry" />
        </mxCell>
        <mxCell id="pOWq3kMjPfXp0oDAjZ03-5" style="edgeStyle=none;shape=connector;rounded=0;orthogonalLoop=1;jettySize=auto;html=1;exitX=1;exitY=0.5;exitDx=0;exitDy=0;entryX=0;entryY=0.5;entryDx=0;entryDy=0;strokeColor=default;align=center;verticalAlign=middle;fontFamily=Helvetica;fontSize=11;fontColor=default;labelBackgroundColor=default;endArrow=classic;" edge="1" parent="pOWq3kMjPfXp0oDAjZ03-1" source="pOWq3kMjPfXp0oDAjZ03-6" target="pOWq3kMjPfXp0oDAjZ03-10">
          <mxGeometry relative="1" as="geometry" />
        </mxCell>
        <mxCell id="pOWq3kMjPfXp0oDAjZ03-6" value="&lt;font face=&quot;Times New Roman&quot; style=&quot;font-size: 30px;&quot;&gt;1&lt;/font&gt;" style="ellipse;whiteSpace=wrap;html=1;aspect=fixed;fillColor=#346cac;strokeColor=#999999;" vertex="1" parent="pOWq3kMjPfXp0oDAjZ03-1">
          <mxGeometry x="90" y="186" width="50" height="50" as="geometry" />
        </mxCell>
        <mxCell id="pOWq3kMjPfXp0oDAjZ03-7" style="edgeStyle=none;shape=connector;rounded=0;orthogonalLoop=1;jettySize=auto;html=1;exitX=1;exitY=0.5;exitDx=0;exitDy=0;entryX=0;entryY=0.5;entryDx=0;entryDy=0;strokeColor=default;align=center;verticalAlign=middle;fontFamily=Helvetica;fontSize=11;fontColor=default;labelBackgroundColor=default;endArrow=classic;" edge="1" parent="pOWq3kMjPfXp0oDAjZ03-1" source="pOWq3kMjPfXp0oDAjZ03-8" target="pOWq3kMjPfXp0oDAjZ03-13">
          <mxGeometry relative="1" as="geometry" />
        </mxCell>
        <mxCell id="pOWq3kMjPfXp0oDAjZ03-8" value="&lt;font face=&quot;Times New Roman&quot; style=&quot;font-size: 30px;&quot;&gt;2&lt;/font&gt;" style="ellipse;whiteSpace=wrap;html=1;aspect=fixed;fillColor=#deeaea;strokeColor=#999999;" vertex="1" parent="pOWq3kMjPfXp0oDAjZ03-1">
          <mxGeometry x="190" y="131" width="50" height="50" as="geometry" />
        </mxCell>
        <mxCell id="pOWq3kMjPfXp0oDAjZ03-9" style="edgeStyle=none;shape=connector;rounded=0;orthogonalLoop=1;jettySize=auto;html=1;exitX=1;exitY=0.5;exitDx=0;exitDy=0;entryX=0;entryY=0.5;entryDx=0;entryDy=0;strokeColor=default;align=center;verticalAlign=middle;fontFamily=Helvetica;fontSize=11;fontColor=default;labelBackgroundColor=default;endArrow=classic;" edge="1" parent="pOWq3kMjPfXp0oDAjZ03-1" source="pOWq3kMjPfXp0oDAjZ03-10" target="pOWq3kMjPfXp0oDAjZ03-16">
          <mxGeometry relative="1" as="geometry" />
        </mxCell>
        <mxCell id="pOWq3kMjPfXp0oDAjZ03-10" value="&lt;font face=&quot;Times New Roman&quot; style=&quot;font-size: 30px;&quot;&gt;3&lt;/font&gt;" style="ellipse;whiteSpace=wrap;html=1;aspect=fixed;fillColor=#f7e474;strokeColor=#999999;" vertex="1" parent="pOWq3kMjPfXp0oDAjZ03-1">
          <mxGeometry x="190" y="239" width="50" height="50" as="geometry" />
        </mxCell>
        <mxCell id="pOWq3kMjPfXp0oDAjZ03-11" style="edgeStyle=none;shape=connector;rounded=0;orthogonalLoop=1;jettySize=auto;html=1;exitX=1;exitY=0.5;exitDx=0;exitDy=0;entryX=0;entryY=0.5;entryDx=0;entryDy=0;strokeColor=default;align=center;verticalAlign=middle;fontFamily=Helvetica;fontSize=11;fontColor=default;labelBackgroundColor=default;endArrow=classic;" edge="1" parent="pOWq3kMjPfXp0oDAjZ03-1" source="pOWq3kMjPfXp0oDAjZ03-13" target="pOWq3kMjPfXp0oDAjZ03-18">
          <mxGeometry relative="1" as="geometry" />
        </mxCell>
        <mxCell id="pOWq3kMjPfXp0oDAjZ03-12" style="edgeStyle=none;shape=connector;rounded=0;orthogonalLoop=1;jettySize=auto;html=1;exitX=1;exitY=0.5;exitDx=0;exitDy=0;entryX=0;entryY=0.5;entryDx=0;entryDy=0;strokeColor=default;align=center;verticalAlign=middle;fontFamily=Helvetica;fontSize=11;fontColor=default;labelBackgroundColor=default;endArrow=classic;" edge="1" parent="pOWq3kMjPfXp0oDAjZ03-1" source="pOWq3kMjPfXp0oDAjZ03-13" target="pOWq3kMjPfXp0oDAjZ03-20">
          <mxGeometry relative="1" as="geometry" />
        </mxCell>
        <mxCell id="pOWq3kMjPfXp0oDAjZ03-13" value="&lt;font face=&quot;Times New Roman&quot; style=&quot;font-size: 30px;&quot;&gt;4&lt;/font&gt;" style="ellipse;whiteSpace=wrap;html=1;aspect=fixed;fillColor=#d8b23a;strokeColor=#999999;" vertex="1" parent="pOWq3kMjPfXp0oDAjZ03-1">
          <mxGeometry x="289" y="131" width="50" height="50" as="geometry" />
        </mxCell>
        <mxCell id="pOWq3kMjPfXp0oDAjZ03-14" style="edgeStyle=none;shape=connector;rounded=0;orthogonalLoop=1;jettySize=auto;html=1;exitX=1;exitY=0.5;exitDx=0;exitDy=0;entryX=0;entryY=0.5;entryDx=0;entryDy=0;strokeColor=default;align=center;verticalAlign=middle;fontFamily=Helvetica;fontSize=11;fontColor=default;labelBackgroundColor=default;endArrow=classic;" edge="1" parent="pOWq3kMjPfXp0oDAjZ03-1" source="pOWq3kMjPfXp0oDAjZ03-16" target="pOWq3kMjPfXp0oDAjZ03-22">
          <mxGeometry relative="1" as="geometry" />
        </mxCell>
        <mxCell id="pOWq3kMjPfXp0oDAjZ03-15" style="edgeStyle=none;shape=connector;rounded=0;orthogonalLoop=1;jettySize=auto;html=1;exitX=1;exitY=1;exitDx=0;exitDy=0;entryX=0;entryY=0.5;entryDx=0;entryDy=0;strokeColor=default;align=center;verticalAlign=middle;fontFamily=Helvetica;fontSize=11;fontColor=default;labelBackgroundColor=default;endArrow=classic;" edge="1" parent="pOWq3kMjPfXp0oDAjZ03-1" source="pOWq3kMjPfXp0oDAjZ03-16" target="pOWq3kMjPfXp0oDAjZ03-24">
          <mxGeometry relative="1" as="geometry" />
        </mxCell>
        <mxCell id="pOWq3kMjPfXp0oDAjZ03-16" value="&lt;font face=&quot;Times New Roman&quot; style=&quot;font-size: 30px;&quot;&gt;5&lt;/font&gt;" style="ellipse;whiteSpace=wrap;html=1;aspect=fixed;fillColor=#f1cab9;strokeColor=#999999;" vertex="1" parent="pOWq3kMjPfXp0oDAjZ03-1">
          <mxGeometry x="289" y="239" width="50" height="50" as="geometry" />
        </mxCell>
        <mxCell id="pOWq3kMjPfXp0oDAjZ03-17" style="edgeStyle=none;shape=connector;rounded=0;orthogonalLoop=1;jettySize=auto;html=1;exitX=1;exitY=0.5;exitDx=0;exitDy=0;entryX=0;entryY=0.5;entryDx=0;entryDy=0;strokeColor=default;align=center;verticalAlign=middle;fontFamily=Helvetica;fontSize=11;fontColor=default;labelBackgroundColor=default;endArrow=classic;" edge="1" parent="pOWq3kMjPfXp0oDAjZ03-1" source="pOWq3kMjPfXp0oDAjZ03-18" target="pOWq3kMjPfXp0oDAjZ03-27">
          <mxGeometry relative="1" as="geometry" />
        </mxCell>
        <mxCell id="pOWq3kMjPfXp0oDAjZ03-18" value="&lt;font face=&quot;Times New Roman&quot; style=&quot;font-size: 30px;&quot;&gt;6&lt;/font&gt;" style="ellipse;whiteSpace=wrap;html=1;aspect=fixed;fillColor=#db7e6a;strokeColor=#999999;" vertex="1" parent="pOWq3kMjPfXp0oDAjZ03-1">
          <mxGeometry x="390" y="86" width="50" height="50" as="geometry" />
        </mxCell>
        <mxCell id="pOWq3kMjPfXp0oDAjZ03-19" style="edgeStyle=none;shape=connector;rounded=0;orthogonalLoop=1;jettySize=auto;html=1;exitX=1;exitY=0.5;exitDx=0;exitDy=0;entryX=0;entryY=0.5;entryDx=0;entryDy=0;strokeColor=default;align=center;verticalAlign=middle;fontFamily=Helvetica;fontSize=11;fontColor=default;labelBackgroundColor=default;endArrow=classic;" edge="1" parent="pOWq3kMjPfXp0oDAjZ03-1" source="pOWq3kMjPfXp0oDAjZ03-20" target="pOWq3kMjPfXp0oDAjZ03-29">
          <mxGeometry relative="1" as="geometry" />
        </mxCell>
        <mxCell id="pOWq3kMjPfXp0oDAjZ03-20" value="&lt;font face=&quot;Times New Roman&quot; style=&quot;font-size: 30px;&quot;&gt;7&lt;/font&gt;" style="ellipse;whiteSpace=wrap;html=1;aspect=fixed;fillColor=#79ced1;strokeColor=#999999;" vertex="1" parent="pOWq3kMjPfXp0oDAjZ03-1">
          <mxGeometry x="390" y="156" width="50" height="50" as="geometry" />
        </mxCell>
        <mxCell id="pOWq3kMjPfXp0oDAjZ03-21" style="edgeStyle=none;shape=connector;rounded=0;orthogonalLoop=1;jettySize=auto;html=1;exitX=1;exitY=0.5;exitDx=0;exitDy=0;entryX=0;entryY=0.5;entryDx=0;entryDy=0;strokeColor=default;align=center;verticalAlign=middle;fontFamily=Helvetica;fontSize=11;fontColor=default;labelBackgroundColor=default;endArrow=classic;" edge="1" parent="pOWq3kMjPfXp0oDAjZ03-1" source="pOWq3kMjPfXp0oDAjZ03-22" target="pOWq3kMjPfXp0oDAjZ03-30">
          <mxGeometry relative="1" as="geometry" />
        </mxCell>
        <mxCell id="pOWq3kMjPfXp0oDAjZ03-22" value="&lt;font face=&quot;Times New Roman&quot; style=&quot;font-size: 30px;&quot;&gt;8&lt;/font&gt;" style="ellipse;whiteSpace=wrap;html=1;aspect=fixed;fillColor=#007d7d;strokeColor=#999999;" vertex="1" parent="pOWq3kMjPfXp0oDAjZ03-1">
          <mxGeometry x="390" y="239" width="50" height="50" as="geometry" />
        </mxCell>
        <mxCell id="pOWq3kMjPfXp0oDAjZ03-23" style="edgeStyle=none;shape=connector;rounded=0;orthogonalLoop=1;jettySize=auto;html=1;exitX=1;exitY=0.5;exitDx=0;exitDy=0;entryX=0;entryY=0.5;entryDx=0;entryDy=0;strokeColor=default;align=center;verticalAlign=middle;fontFamily=Helvetica;fontSize=11;fontColor=default;labelBackgroundColor=default;endArrow=classic;" edge="1" parent="pOWq3kMjPfXp0oDAjZ03-1" source="pOWq3kMjPfXp0oDAjZ03-24" target="pOWq3kMjPfXp0oDAjZ03-32">
          <mxGeometry relative="1" as="geometry" />
        </mxCell>
        <mxCell id="pOWq3kMjPfXp0oDAjZ03-24" value="&lt;font face=&quot;Times New Roman&quot; style=&quot;font-size: 30px;&quot;&gt;9&lt;/font&gt;" style="ellipse;whiteSpace=wrap;html=1;aspect=fixed;fillColor=#f58722;strokeColor=#999999;" vertex="1" parent="pOWq3kMjPfXp0oDAjZ03-1">
          <mxGeometry x="390" y="324" width="50" height="50" as="geometry" />
        </mxCell>
        <mxCell id="pOWq3kMjPfXp0oDAjZ03-25" style="edgeStyle=none;shape=connector;rounded=0;orthogonalLoop=1;jettySize=auto;html=1;exitX=1;exitY=0.5;exitDx=0;exitDy=0;entryX=0;entryY=0.5;entryDx=0;entryDy=0;strokeColor=default;align=center;verticalAlign=middle;fontFamily=Helvetica;fontSize=11;fontColor=default;labelBackgroundColor=default;endArrow=classic;" edge="1" parent="pOWq3kMjPfXp0oDAjZ03-1" source="pOWq3kMjPfXp0oDAjZ03-27" target="pOWq3kMjPfXp0oDAjZ03-34">
          <mxGeometry relative="1" as="geometry" />
        </mxCell>
        <mxCell id="pOWq3kMjPfXp0oDAjZ03-26" style="edgeStyle=none;shape=connector;rounded=0;orthogonalLoop=1;jettySize=auto;html=1;exitX=1;exitY=0.5;exitDx=0;exitDy=0;entryX=0;entryY=0.5;entryDx=0;entryDy=0;strokeColor=default;align=center;verticalAlign=middle;fontFamily=Helvetica;fontSize=11;fontColor=default;labelBackgroundColor=default;endArrow=classic;" edge="1" parent="pOWq3kMjPfXp0oDAjZ03-1" source="pOWq3kMjPfXp0oDAjZ03-27" target="pOWq3kMjPfXp0oDAjZ03-36">
          <mxGeometry relative="1" as="geometry" />
        </mxCell>
        <mxCell id="pOWq3kMjPfXp0oDAjZ03-27" value="&lt;font face=&quot;Times New Roman&quot; style=&quot;font-size: 30px;&quot;&gt;10&lt;/font&gt;" style="ellipse;whiteSpace=wrap;html=1;aspect=fixed;fillColor=#9dcee5;strokeColor=#999999;" vertex="1" parent="pOWq3kMjPfXp0oDAjZ03-1">
          <mxGeometry x="490" y="86" width="50" height="50" as="geometry" />
        </mxCell>
        <mxCell id="pOWq3kMjPfXp0oDAjZ03-28" style="edgeStyle=none;shape=connector;rounded=0;orthogonalLoop=1;jettySize=auto;html=1;exitX=1;exitY=1;exitDx=0;exitDy=0;strokeColor=default;align=center;verticalAlign=middle;fontFamily=Helvetica;fontSize=11;fontColor=default;labelBackgroundColor=default;endArrow=classic;entryX=0;entryY=0.5;entryDx=0;entryDy=0;" edge="1" parent="pOWq3kMjPfXp0oDAjZ03-1" source="pOWq3kMjPfXp0oDAjZ03-29" target="pOWq3kMjPfXp0oDAjZ03-37">
          <mxGeometry relative="1" as="geometry" />
        </mxCell>
        <mxCell id="pOWq3kMjPfXp0oDAjZ03-29" value="&lt;font face=&quot;Times New Roman&quot; style=&quot;font-size: 30px;&quot;&gt;11&lt;/font&gt;" style="ellipse;whiteSpace=wrap;html=1;aspect=fixed;fillColor=#b88cc0;strokeColor=#999999;" vertex="1" parent="pOWq3kMjPfXp0oDAjZ03-1">
          <mxGeometry x="490" y="156" width="50" height="50" as="geometry" />
        </mxCell>
        <mxCell id="pOWq3kMjPfXp0oDAjZ03-30" value="&lt;font face=&quot;Times New Roman&quot; style=&quot;font-size: 30px;&quot;&gt;12&lt;/font&gt;" style="ellipse;whiteSpace=wrap;html=1;aspect=fixed;fillColor=#699ed4;strokeColor=#999999;" vertex="1" parent="pOWq3kMjPfXp0oDAjZ03-1">
          <mxGeometry x="484" y="239" width="50" height="50" as="geometry" />
        </mxCell>
        <mxCell id="pOWq3kMjPfXp0oDAjZ03-31" style="edgeStyle=none;shape=connector;rounded=0;orthogonalLoop=1;jettySize=auto;html=1;exitX=1;exitY=0.5;exitDx=0;exitDy=0;entryX=0;entryY=0.5;entryDx=0;entryDy=0;strokeColor=default;align=center;verticalAlign=middle;fontFamily=Helvetica;fontSize=11;fontColor=default;labelBackgroundColor=default;endArrow=classic;" edge="1" parent="pOWq3kMjPfXp0oDAjZ03-1" source="pOWq3kMjPfXp0oDAjZ03-32" target="pOWq3kMjPfXp0oDAjZ03-39">
          <mxGeometry relative="1" as="geometry" />
        </mxCell>
        <mxCell id="pOWq3kMjPfXp0oDAjZ03-32" value="&lt;font face=&quot;Times New Roman&quot; style=&quot;font-size: 30px;&quot;&gt;13&lt;/font&gt;" style="ellipse;whiteSpace=wrap;html=1;aspect=fixed;fillColor=#fbe5d6;strokeColor=#999999;" vertex="1" parent="pOWq3kMjPfXp0oDAjZ03-1">
          <mxGeometry x="490" y="324" width="50" height="50" as="geometry" />
        </mxCell>
        <mxCell id="pOWq3kMjPfXp0oDAjZ03-33" style="edgeStyle=none;shape=connector;rounded=0;orthogonalLoop=1;jettySize=auto;html=1;exitX=1;exitY=0.5;exitDx=0;exitDy=0;entryX=0;entryY=0.5;entryDx=0;entryDy=0;strokeColor=default;align=center;verticalAlign=middle;fontFamily=Helvetica;fontSize=11;fontColor=default;labelBackgroundColor=default;endArrow=classic;" edge="1" parent="pOWq3kMjPfXp0oDAjZ03-1" source="pOWq3kMjPfXp0oDAjZ03-34" target="pOWq3kMjPfXp0oDAjZ03-45">
          <mxGeometry relative="1" as="geometry" />
        </mxCell>
        <mxCell id="pOWq3kMjPfXp0oDAjZ03-34" value="&lt;font face=&quot;Times New Roman&quot; style=&quot;font-size: 30px;&quot;&gt;14&lt;/font&gt;" style="ellipse;whiteSpace=wrap;html=1;aspect=fixed;fillColor=#fff2cc;strokeColor=#999999;" vertex="1" parent="pOWq3kMjPfXp0oDAjZ03-1">
          <mxGeometry x="590" y="36" width="50" height="50" as="geometry" />
        </mxCell>
        <mxCell id="pOWq3kMjPfXp0oDAjZ03-35" style="edgeStyle=none;shape=connector;rounded=0;orthogonalLoop=1;jettySize=auto;html=1;exitX=1;exitY=0.5;exitDx=0;exitDy=0;entryX=0;entryY=0.5;entryDx=0;entryDy=0;strokeColor=default;align=center;verticalAlign=middle;fontFamily=Helvetica;fontSize=11;fontColor=default;labelBackgroundColor=default;endArrow=classic;" edge="1" parent="pOWq3kMjPfXp0oDAjZ03-1" source="pOWq3kMjPfXp0oDAjZ03-36" target="pOWq3kMjPfXp0oDAjZ03-47">
          <mxGeometry relative="1" as="geometry" />
        </mxCell>
        <mxCell id="pOWq3kMjPfXp0oDAjZ03-36" value="&lt;font face=&quot;Times New Roman&quot; style=&quot;font-size: 30px;&quot;&gt;15&lt;/font&gt;" style="ellipse;whiteSpace=wrap;html=1;aspect=fixed;fillColor=#dae3f3;strokeColor=#999999;" vertex="1" parent="pOWq3kMjPfXp0oDAjZ03-1">
          <mxGeometry x="590" y="136" width="50" height="50" as="geometry" />
        </mxCell>
        <mxCell id="pOWq3kMjPfXp0oDAjZ03-37" value="&lt;font face=&quot;Times New Roman&quot; style=&quot;font-size: 30px;&quot;&gt;16&lt;/font&gt;" style="ellipse;whiteSpace=wrap;html=1;aspect=fixed;fillColor=#e2f0d9;strokeColor=#999999;" vertex="1" parent="pOWq3kMjPfXp0oDAjZ03-1">
          <mxGeometry x="580" y="240" width="50" height="50" as="geometry" />
        </mxCell>
        <mxCell id="pOWq3kMjPfXp0oDAjZ03-38" style="edgeStyle=none;shape=connector;rounded=0;orthogonalLoop=1;jettySize=auto;html=1;exitX=1;exitY=0.5;exitDx=0;exitDy=0;entryX=0;entryY=0.5;entryDx=0;entryDy=0;strokeColor=default;align=center;verticalAlign=middle;fontFamily=Helvetica;fontSize=11;fontColor=default;labelBackgroundColor=default;endArrow=classic;" edge="1" parent="pOWq3kMjPfXp0oDAjZ03-1" source="pOWq3kMjPfXp0oDAjZ03-39" target="pOWq3kMjPfXp0oDAjZ03-41">
          <mxGeometry relative="1" as="geometry" />
        </mxCell>
        <mxCell id="pOWq3kMjPfXp0oDAjZ03-39" value="&lt;font face=&quot;Times New Roman&quot; style=&quot;font-size: 30px;&quot;&gt;17&lt;/font&gt;" style="ellipse;whiteSpace=wrap;html=1;aspect=fixed;fillColor=#ffff00;strokeColor=#999999;" vertex="1" parent="pOWq3kMjPfXp0oDAjZ03-1">
          <mxGeometry x="580" y="324" width="50" height="50" as="geometry" />
        </mxCell>
        <mxCell id="pOWq3kMjPfXp0oDAjZ03-40" style="edgeStyle=none;shape=connector;rounded=0;orthogonalLoop=1;jettySize=auto;html=1;exitX=1;exitY=0.5;exitDx=0;exitDy=0;entryX=0;entryY=0.5;entryDx=0;entryDy=0;strokeColor=default;align=center;verticalAlign=middle;fontFamily=Helvetica;fontSize=11;fontColor=default;labelBackgroundColor=default;endArrow=classic;" edge="1" parent="pOWq3kMjPfXp0oDAjZ03-1" source="pOWq3kMjPfXp0oDAjZ03-41" target="pOWq3kMjPfXp0oDAjZ03-42">
          <mxGeometry relative="1" as="geometry" />
        </mxCell>
        <mxCell id="pOWq3kMjPfXp0oDAjZ03-41" value="&lt;font face=&quot;Times New Roman&quot; style=&quot;font-size: 30px;&quot;&gt;20&lt;/font&gt;" style="ellipse;whiteSpace=wrap;html=1;aspect=fixed;fillColor=#79bdad;strokeColor=#999999;" vertex="1" parent="pOWq3kMjPfXp0oDAjZ03-1">
          <mxGeometry x="680" y="324" width="50" height="50" as="geometry" />
        </mxCell>
        <mxCell id="pOWq3kMjPfXp0oDAjZ03-42" value="&lt;font face=&quot;Times New Roman&quot; style=&quot;font-size: 30px;&quot;&gt;24&lt;/font&gt;" style="ellipse;whiteSpace=wrap;html=1;aspect=fixed;fillColor=#c7bd9b;strokeColor=#999999;" vertex="1" parent="pOWq3kMjPfXp0oDAjZ03-1">
          <mxGeometry x="781" y="324" width="50" height="50" as="geometry" />
        </mxCell>
        <mxCell id="pOWq3kMjPfXp0oDAjZ03-43" style="edgeStyle=none;shape=connector;rounded=0;orthogonalLoop=1;jettySize=auto;html=1;exitX=1;exitY=0.5;exitDx=0;exitDy=0;entryX=0;entryY=0.5;entryDx=0;entryDy=0;strokeColor=default;align=center;verticalAlign=middle;fontFamily=Helvetica;fontSize=11;fontColor=default;labelBackgroundColor=default;endArrow=classic;" edge="1" parent="pOWq3kMjPfXp0oDAjZ03-1" source="pOWq3kMjPfXp0oDAjZ03-45" target="pOWq3kMjPfXp0oDAjZ03-48">
          <mxGeometry relative="1" as="geometry" />
        </mxCell>
        <mxCell id="pOWq3kMjPfXp0oDAjZ03-44" style="edgeStyle=none;shape=connector;rounded=0;orthogonalLoop=1;jettySize=auto;html=1;exitX=1;exitY=0.5;exitDx=0;exitDy=0;entryX=0;entryY=0.5;entryDx=0;entryDy=0;strokeColor=default;align=center;verticalAlign=middle;fontFamily=Helvetica;fontSize=11;fontColor=default;labelBackgroundColor=default;endArrow=classic;" edge="1" parent="pOWq3kMjPfXp0oDAjZ03-1" source="pOWq3kMjPfXp0oDAjZ03-45" target="pOWq3kMjPfXp0oDAjZ03-49">
          <mxGeometry relative="1" as="geometry" />
        </mxCell>
        <mxCell id="pOWq3kMjPfXp0oDAjZ03-45" value="&lt;font face=&quot;Times New Roman&quot; style=&quot;font-size: 30px;&quot;&gt;18&lt;/font&gt;" style="ellipse;whiteSpace=wrap;html=1;aspect=fixed;fillColor=#92d050;strokeColor=#999999;" vertex="1" parent="pOWq3kMjPfXp0oDAjZ03-1">
          <mxGeometry x="690" y="36" width="50" height="50" as="geometry" />
        </mxCell>
        <mxCell id="pOWq3kMjPfXp0oDAjZ03-46" style="edgeStyle=none;shape=connector;rounded=0;orthogonalLoop=1;jettySize=auto;html=1;exitX=1;exitY=0.5;exitDx=0;exitDy=0;entryX=0;entryY=0.5;entryDx=0;entryDy=0;strokeColor=default;align=center;verticalAlign=middle;fontFamily=Helvetica;fontSize=11;fontColor=default;labelBackgroundColor=default;endArrow=classic;" edge="1" parent="pOWq3kMjPfXp0oDAjZ03-1" source="pOWq3kMjPfXp0oDAjZ03-47" target="pOWq3kMjPfXp0oDAjZ03-50">
          <mxGeometry relative="1" as="geometry" />
        </mxCell>
        <mxCell id="pOWq3kMjPfXp0oDAjZ03-47" value="&lt;font face=&quot;Times New Roman&quot; style=&quot;font-size: 30px;&quot;&gt;19&lt;/font&gt;" style="ellipse;whiteSpace=wrap;html=1;aspect=fixed;fillColor=#00b0f0;strokeColor=#999999;" vertex="1" parent="pOWq3kMjPfXp0oDAjZ03-1">
          <mxGeometry x="690" y="136" width="50" height="50" as="geometry" />
        </mxCell>
        <mxCell id="pOWq3kMjPfXp0oDAjZ03-48" value="&lt;font face=&quot;Times New Roman&quot; style=&quot;font-size: 30px;&quot;&gt;21&lt;/font&gt;" style="ellipse;whiteSpace=wrap;html=1;aspect=fixed;fillColor=#adb9ca;strokeColor=#999999;" vertex="1" parent="pOWq3kMjPfXp0oDAjZ03-1">
          <mxGeometry x="780" width="50" height="50" as="geometry" />
        </mxCell>
        <mxCell id="pOWq3kMjPfXp0oDAjZ03-49" value="&lt;font face=&quot;Times New Roman&quot; style=&quot;font-size: 30px;&quot;&gt;22&lt;/font&gt;" style="ellipse;whiteSpace=wrap;html=1;aspect=fixed;fillColor=#00c87d;strokeColor=#999999;" vertex="1" parent="pOWq3kMjPfXp0oDAjZ03-1">
          <mxGeometry x="780" y="68" width="50" height="50" as="geometry" />
        </mxCell>
        <mxCell id="pOWq3kMjPfXp0oDAjZ03-50" value="&lt;font face=&quot;Times New Roman&quot; style=&quot;font-size: 30px;&quot;&gt;23&lt;/font&gt;" style="ellipse;whiteSpace=wrap;html=1;aspect=fixed;fillColor=#e19caa;strokeColor=#999999;" vertex="1" parent="pOWq3kMjPfXp0oDAjZ03-1">
          <mxGeometry x="780" y="136" width="50" height="50" as="geometry" />
        </mxCell>
      </root>
    </mxGraphModel>
  </diagram>
  <diagram id="K4YLfkudzO-6hUqorm7G" name="第 5 页">
    <mxGraphModel dx="1909" dy="2798" grid="1" gridSize="10" guides="1" tooltips="1" connect="1" arrows="1" fold="1" page="1" pageScale="1" pageWidth="1169" pageHeight="827" math="0" shadow="0">
      <root>
        <mxCell id="0" />
        <mxCell id="1" parent="0" />
        <mxCell id="tFcFrUh1cWoHuSt5WJkO-8" value="" style="rounded=1;whiteSpace=wrap;html=1;fontFamily=Helvetica;fontSize=11;fontColor=default;labelBackgroundColor=default;fillColor=none;" vertex="1" parent="1">
          <mxGeometry x="1360" y="-1063" width="100" height="80" as="geometry" />
        </mxCell>
        <mxCell id="tFcFrUh1cWoHuSt5WJkO-9" value="" style="rounded=1;whiteSpace=wrap;html=1;fontFamily=Helvetica;fontSize=11;fontColor=default;labelBackgroundColor=default;fillColor=none;" vertex="1" parent="1">
          <mxGeometry x="1600" y="-1063" width="100" height="80" as="geometry" />
        </mxCell>
        <mxCell id="tFcFrUh1cWoHuSt5WJkO-10" value="" style="rounded=1;whiteSpace=wrap;html=1;fontFamily=Helvetica;fontSize=11;fontColor=default;labelBackgroundColor=default;fillColor=none;" vertex="1" parent="1">
          <mxGeometry x="1840" y="-1063" width="100" height="80" as="geometry" />
        </mxCell>
        <mxCell id="tFcFrUh1cWoHuSt5WJkO-11" value="" style="rounded=1;whiteSpace=wrap;html=1;fontFamily=Helvetica;fontSize=11;fontColor=default;labelBackgroundColor=default;fillColor=none;" vertex="1" parent="1">
          <mxGeometry x="2080" y="-1063" width="100" height="80" as="geometry" />
        </mxCell>
        <mxCell id="tFcFrUh1cWoHuSt5WJkO-12" value="" style="rounded=1;whiteSpace=wrap;html=1;fontFamily=Helvetica;fontSize=11;fontColor=default;labelBackgroundColor=default;fillColor=none;" vertex="1" parent="1">
          <mxGeometry x="2320" y="-1063" width="100" height="80" as="geometry" />
        </mxCell>
        <mxCell id="tFcFrUh1cWoHuSt5WJkO-28" style="edgeStyle=none;shape=connector;rounded=1;orthogonalLoop=1;jettySize=auto;html=1;exitX=1;exitY=0.5;exitDx=0;exitDy=0;entryX=0;entryY=0.5;entryDx=0;entryDy=0;strokeColor=#000000;align=center;verticalAlign=middle;fontFamily=Helvetica;fontSize=11;fontColor=default;labelBackgroundColor=default;endArrow=classic;startArrow=classic;startFill=1;dashed=1;" edge="1" parent="1" source="tFcFrUh1cWoHuSt5WJkO-23" target="tFcFrUh1cWoHuSt5WJkO-24">
          <mxGeometry relative="1" as="geometry" />
        </mxCell>
        <mxCell id="tFcFrUh1cWoHuSt5WJkO-23" value="" style="rounded=1;whiteSpace=wrap;html=1;fontFamily=Helvetica;fontSize=11;fontColor=default;labelBackgroundColor=default;fillColor=none;" vertex="1" parent="1">
          <mxGeometry x="1460" y="-1270" width="100" height="80" as="geometry" />
        </mxCell>
        <mxCell id="tFcFrUh1cWoHuSt5WJkO-24" value="" style="rounded=1;whiteSpace=wrap;html=1;fontFamily=Helvetica;fontSize=11;fontColor=default;labelBackgroundColor=default;fillColor=none;" vertex="1" parent="1">
          <mxGeometry x="1700" y="-1270" width="100" height="80" as="geometry" />
        </mxCell>
        <mxCell id="tFcFrUh1cWoHuSt5WJkO-25" value="" style="rounded=1;whiteSpace=wrap;html=1;fontFamily=Helvetica;fontSize=11;fontColor=default;labelBackgroundColor=default;fillColor=none;" vertex="1" parent="1">
          <mxGeometry x="1940" y="-1270" width="100" height="80" as="geometry" />
        </mxCell>
        <mxCell id="tFcFrUh1cWoHuSt5WJkO-26" value="" style="rounded=1;whiteSpace=wrap;html=1;fontFamily=Helvetica;fontSize=11;fontColor=default;labelBackgroundColor=default;fillColor=none;" vertex="1" parent="1">
          <mxGeometry x="2180" y="-1270" width="100" height="80" as="geometry" />
        </mxCell>
        <mxCell id="tFcFrUh1cWoHuSt5WJkO-27" value="" style="rounded=1;whiteSpace=wrap;html=1;fontFamily=Helvetica;fontSize=11;fontColor=default;labelBackgroundColor=default;fillColor=none;" vertex="1" parent="1">
          <mxGeometry x="2420" y="-1270" width="100" height="80" as="geometry" />
        </mxCell>
        <mxCell id="tFcFrUh1cWoHuSt5WJkO-32" style="edgeStyle=none;shape=connector;rounded=1;orthogonalLoop=1;jettySize=auto;html=1;entryX=0;entryY=0.5;entryDx=0;entryDy=0;strokeColor=#000000;align=center;verticalAlign=middle;fontFamily=Helvetica;fontSize=11;fontColor=default;labelBackgroundColor=default;endArrow=classic;startArrow=classic;startFill=1;dashed=1;" edge="1" parent="1" source="tFcFrUh1cWoHuSt5WJkO-24" target="tFcFrUh1cWoHuSt5WJkO-25">
          <mxGeometry relative="1" as="geometry">
            <mxPoint x="1720" y="-1150" as="sourcePoint" />
            <mxPoint x="1860" y="-1150" as="targetPoint" />
          </mxGeometry>
        </mxCell>
        <mxCell id="tFcFrUh1cWoHuSt5WJkO-33" style="edgeStyle=none;shape=connector;rounded=1;orthogonalLoop=1;jettySize=auto;html=1;exitX=0.5;exitY=1;exitDx=0;exitDy=0;entryX=0.5;entryY=0;entryDx=0;entryDy=0;strokeColor=#999999;align=center;verticalAlign=middle;fontFamily=Helvetica;fontSize=11;fontColor=default;labelBackgroundColor=default;endArrow=classic;startArrow=classic;startFill=1;dashed=1;" edge="1" parent="1" source="tFcFrUh1cWoHuSt5WJkO-23" target="tFcFrUh1cWoHuSt5WJkO-8">
          <mxGeometry relative="1" as="geometry">
            <mxPoint x="1540" y="-1150" as="sourcePoint" />
            <mxPoint x="1680" y="-1150" as="targetPoint" />
          </mxGeometry>
        </mxCell>
        <mxCell id="tFcFrUh1cWoHuSt5WJkO-34" style="edgeStyle=none;shape=connector;rounded=1;orthogonalLoop=1;jettySize=auto;html=1;exitX=0.5;exitY=0;exitDx=0;exitDy=0;entryX=0.5;entryY=1;entryDx=0;entryDy=0;strokeColor=#999999;align=center;verticalAlign=middle;fontFamily=Helvetica;fontSize=11;fontColor=default;labelBackgroundColor=default;endArrow=classic;startArrow=classic;startFill=1;dashed=1;" edge="1" parent="1" source="tFcFrUh1cWoHuSt5WJkO-9" target="tFcFrUh1cWoHuSt5WJkO-24">
          <mxGeometry relative="1" as="geometry">
            <mxPoint x="1570" y="-1140" as="sourcePoint" />
            <mxPoint x="1710" y="-1140" as="targetPoint" />
          </mxGeometry>
        </mxCell>
        <mxCell id="tFcFrUh1cWoHuSt5WJkO-35" style="edgeStyle=none;shape=connector;rounded=1;orthogonalLoop=1;jettySize=auto;html=1;exitX=0.5;exitY=0;exitDx=0;exitDy=0;entryX=0.5;entryY=1;entryDx=0;entryDy=0;strokeColor=#999999;align=center;verticalAlign=middle;fontFamily=Helvetica;fontSize=11;fontColor=default;labelBackgroundColor=default;endArrow=classic;startArrow=classic;startFill=1;dashed=1;" edge="1" parent="1" source="tFcFrUh1cWoHuSt5WJkO-10" target="tFcFrUh1cWoHuSt5WJkO-25">
          <mxGeometry relative="1" as="geometry">
            <mxPoint x="1740" y="-1010" as="sourcePoint" />
            <mxPoint x="1860" y="-1170" as="targetPoint" />
          </mxGeometry>
        </mxCell>
        <mxCell id="tFcFrUh1cWoHuSt5WJkO-36" style="edgeStyle=none;shape=connector;rounded=1;orthogonalLoop=1;jettySize=auto;html=1;exitX=0.5;exitY=0;exitDx=0;exitDy=0;entryX=0.5;entryY=1;entryDx=0;entryDy=0;strokeColor=#999999;align=center;verticalAlign=middle;fontFamily=Helvetica;fontSize=11;fontColor=default;labelBackgroundColor=default;endArrow=classic;startArrow=classic;startFill=1;dashed=1;" edge="1" parent="1" source="tFcFrUh1cWoHuSt5WJkO-11" target="tFcFrUh1cWoHuSt5WJkO-26">
          <mxGeometry relative="1" as="geometry">
            <mxPoint x="2070" y="-1030" as="sourcePoint" />
            <mxPoint x="2190" y="-1190" as="targetPoint" />
          </mxGeometry>
        </mxCell>
        <mxCell id="tFcFrUh1cWoHuSt5WJkO-37" style="edgeStyle=none;shape=connector;rounded=1;orthogonalLoop=1;jettySize=auto;html=1;exitX=0.5;exitY=0;exitDx=0;exitDy=0;entryX=0.5;entryY=1;entryDx=0;entryDy=0;strokeColor=#999999;align=center;verticalAlign=middle;fontFamily=Helvetica;fontSize=11;fontColor=default;labelBackgroundColor=default;endArrow=classic;startArrow=classic;startFill=1;dashed=1;" edge="1" parent="1" source="tFcFrUh1cWoHuSt5WJkO-12" target="tFcFrUh1cWoHuSt5WJkO-27">
          <mxGeometry relative="1" as="geometry">
            <mxPoint x="2218" y="-1020" as="sourcePoint" />
            <mxPoint x="2338" y="-1180" as="targetPoint" />
          </mxGeometry>
        </mxCell>
        <mxCell id="tFcFrUh1cWoHuSt5WJkO-38" style="edgeStyle=none;shape=connector;rounded=1;orthogonalLoop=1;jettySize=auto;html=1;entryX=0;entryY=0.5;entryDx=0;entryDy=0;strokeColor=#000000;align=center;verticalAlign=middle;fontFamily=Helvetica;fontSize=11;fontColor=default;labelBackgroundColor=default;endArrow=classic;startArrow=classic;startFill=1;exitX=1;exitY=0.5;exitDx=0;exitDy=0;dashed=1;" edge="1" parent="1" source="tFcFrUh1cWoHuSt5WJkO-25" target="tFcFrUh1cWoHuSt5WJkO-26">
          <mxGeometry relative="1" as="geometry">
            <mxPoint x="2040" y="-1220" as="sourcePoint" />
            <mxPoint x="2180" y="-1220" as="targetPoint" />
          </mxGeometry>
        </mxCell>
        <mxCell id="tFcFrUh1cWoHuSt5WJkO-39" style="edgeStyle=none;shape=connector;rounded=1;orthogonalLoop=1;jettySize=auto;html=1;entryX=0;entryY=0.5;entryDx=0;entryDy=0;strokeColor=#000000;align=center;verticalAlign=middle;fontFamily=Helvetica;fontSize=11;fontColor=default;labelBackgroundColor=default;endArrow=classic;startArrow=classic;startFill=1;exitX=1;exitY=0.5;exitDx=0;exitDy=0;dashed=1;" edge="1" parent="1" source="tFcFrUh1cWoHuSt5WJkO-26" target="tFcFrUh1cWoHuSt5WJkO-27">
          <mxGeometry relative="1" as="geometry">
            <mxPoint x="2170" y="-1150" as="sourcePoint" />
            <mxPoint x="2310" y="-1150" as="targetPoint" />
          </mxGeometry>
        </mxCell>
        <mxCell id="tFcFrUh1cWoHuSt5WJkO-40" value="" style="rounded=1;whiteSpace=wrap;html=1;fontFamily=Helvetica;fontSize=11;fontColor=default;labelBackgroundColor=default;fillColor=none;" vertex="1" parent="1">
          <mxGeometry x="1158" y="-648" width="100" height="80" as="geometry" />
        </mxCell>
        <mxCell id="tFcFrUh1cWoHuSt5WJkO-41" value="" style="rounded=1;whiteSpace=wrap;html=1;fontFamily=Helvetica;fontSize=11;fontColor=default;labelBackgroundColor=default;fillColor=none;" vertex="1" parent="1">
          <mxGeometry x="1398" y="-648" width="100" height="80" as="geometry" />
        </mxCell>
        <mxCell id="tFcFrUh1cWoHuSt5WJkO-42" value="" style="rounded=1;whiteSpace=wrap;html=1;fontFamily=Helvetica;fontSize=11;fontColor=default;labelBackgroundColor=default;fillColor=none;" vertex="1" parent="1">
          <mxGeometry x="1638" y="-648" width="100" height="80" as="geometry" />
        </mxCell>
        <mxCell id="tFcFrUh1cWoHuSt5WJkO-43" value="" style="rounded=1;whiteSpace=wrap;html=1;fontFamily=Helvetica;fontSize=11;fontColor=default;labelBackgroundColor=default;fillColor=none;" vertex="1" parent="1">
          <mxGeometry x="1878" y="-648" width="100" height="80" as="geometry" />
        </mxCell>
        <mxCell id="tFcFrUh1cWoHuSt5WJkO-44" value="" style="rounded=1;whiteSpace=wrap;html=1;fontFamily=Helvetica;fontSize=11;fontColor=default;labelBackgroundColor=default;fillColor=none;" vertex="1" parent="1">
          <mxGeometry x="2118" y="-648" width="100" height="80" as="geometry" />
        </mxCell>
        <mxCell id="tFcFrUh1cWoHuSt5WJkO-45" style="edgeStyle=none;shape=connector;rounded=1;orthogonalLoop=1;jettySize=auto;html=1;exitX=1;exitY=0.5;exitDx=0;exitDy=0;entryX=0;entryY=0.5;entryDx=0;entryDy=0;strokeColor=#000000;align=center;verticalAlign=middle;fontFamily=Helvetica;fontSize=11;fontColor=default;labelBackgroundColor=default;endArrow=classic;startArrow=classic;startFill=1;dashed=1;" edge="1" source="tFcFrUh1cWoHuSt5WJkO-46" target="tFcFrUh1cWoHuSt5WJkO-47" parent="1">
          <mxGeometry relative="1" as="geometry" />
        </mxCell>
        <mxCell id="tFcFrUh1cWoHuSt5WJkO-46" value="" style="rounded=1;whiteSpace=wrap;html=1;fontFamily=Helvetica;fontSize=11;fontColor=default;labelBackgroundColor=default;fillColor=none;" vertex="1" parent="1">
          <mxGeometry x="1258" y="-855" width="100" height="80" as="geometry" />
        </mxCell>
        <mxCell id="tFcFrUh1cWoHuSt5WJkO-47" value="" style="rounded=1;whiteSpace=wrap;html=1;fontFamily=Helvetica;fontSize=11;fontColor=default;labelBackgroundColor=default;fillColor=none;" vertex="1" parent="1">
          <mxGeometry x="1498" y="-855" width="100" height="80" as="geometry" />
        </mxCell>
        <mxCell id="tFcFrUh1cWoHuSt5WJkO-48" value="" style="rounded=1;whiteSpace=wrap;html=1;fontFamily=Helvetica;fontSize=11;fontColor=default;labelBackgroundColor=default;fillColor=none;" vertex="1" parent="1">
          <mxGeometry x="1738" y="-855" width="100" height="80" as="geometry" />
        </mxCell>
        <mxCell id="tFcFrUh1cWoHuSt5WJkO-49" value="" style="rounded=1;whiteSpace=wrap;html=1;fontFamily=Helvetica;fontSize=11;fontColor=default;labelBackgroundColor=default;fillColor=none;" vertex="1" parent="1">
          <mxGeometry x="1978" y="-855" width="100" height="80" as="geometry" />
        </mxCell>
        <mxCell id="tFcFrUh1cWoHuSt5WJkO-50" value="" style="rounded=1;whiteSpace=wrap;html=1;fontFamily=Helvetica;fontSize=11;fontColor=default;labelBackgroundColor=default;fillColor=none;" vertex="1" parent="1">
          <mxGeometry x="2218" y="-855" width="100" height="80" as="geometry" />
        </mxCell>
        <mxCell id="tFcFrUh1cWoHuSt5WJkO-51" style="edgeStyle=none;shape=connector;rounded=1;orthogonalLoop=1;jettySize=auto;html=1;entryX=0;entryY=0.5;entryDx=0;entryDy=0;strokeColor=#000000;align=center;verticalAlign=middle;fontFamily=Helvetica;fontSize=11;fontColor=default;labelBackgroundColor=default;endArrow=classic;startArrow=classic;startFill=1;dashed=1;" edge="1" source="tFcFrUh1cWoHuSt5WJkO-47" target="tFcFrUh1cWoHuSt5WJkO-48" parent="1">
          <mxGeometry relative="1" as="geometry">
            <mxPoint x="1518" y="-735" as="sourcePoint" />
            <mxPoint x="1658" y="-735" as="targetPoint" />
          </mxGeometry>
        </mxCell>
        <mxCell id="tFcFrUh1cWoHuSt5WJkO-52" style="edgeStyle=none;shape=connector;rounded=1;orthogonalLoop=1;jettySize=auto;html=1;exitX=0.5;exitY=1;exitDx=0;exitDy=0;entryX=0.5;entryY=0;entryDx=0;entryDy=0;strokeColor=#999999;align=center;verticalAlign=middle;fontFamily=Helvetica;fontSize=11;fontColor=default;labelBackgroundColor=default;endArrow=classic;startArrow=classic;startFill=1;dashed=1;" edge="1" source="tFcFrUh1cWoHuSt5WJkO-46" target="tFcFrUh1cWoHuSt5WJkO-40" parent="1">
          <mxGeometry relative="1" as="geometry">
            <mxPoint x="1338" y="-735" as="sourcePoint" />
            <mxPoint x="1478" y="-735" as="targetPoint" />
          </mxGeometry>
        </mxCell>
        <mxCell id="tFcFrUh1cWoHuSt5WJkO-53" style="edgeStyle=none;shape=connector;rounded=1;orthogonalLoop=1;jettySize=auto;html=1;exitX=0.5;exitY=0;exitDx=0;exitDy=0;entryX=0.5;entryY=1;entryDx=0;entryDy=0;strokeColor=#999999;align=center;verticalAlign=middle;fontFamily=Helvetica;fontSize=11;fontColor=default;labelBackgroundColor=default;endArrow=classic;startArrow=classic;startFill=1;dashed=1;" edge="1" source="tFcFrUh1cWoHuSt5WJkO-41" target="tFcFrUh1cWoHuSt5WJkO-47" parent="1">
          <mxGeometry relative="1" as="geometry">
            <mxPoint x="1368" y="-725" as="sourcePoint" />
            <mxPoint x="1508" y="-725" as="targetPoint" />
          </mxGeometry>
        </mxCell>
        <mxCell id="tFcFrUh1cWoHuSt5WJkO-54" style="edgeStyle=none;shape=connector;rounded=1;orthogonalLoop=1;jettySize=auto;html=1;exitX=0.5;exitY=0;exitDx=0;exitDy=0;entryX=0.5;entryY=1;entryDx=0;entryDy=0;strokeColor=#999999;align=center;verticalAlign=middle;fontFamily=Helvetica;fontSize=11;fontColor=default;labelBackgroundColor=default;endArrow=classic;startArrow=classic;startFill=1;dashed=1;" edge="1" source="tFcFrUh1cWoHuSt5WJkO-42" target="tFcFrUh1cWoHuSt5WJkO-48" parent="1">
          <mxGeometry relative="1" as="geometry">
            <mxPoint x="1538" y="-595" as="sourcePoint" />
            <mxPoint x="1658" y="-755" as="targetPoint" />
          </mxGeometry>
        </mxCell>
        <mxCell id="tFcFrUh1cWoHuSt5WJkO-55" style="edgeStyle=none;shape=connector;rounded=1;orthogonalLoop=1;jettySize=auto;html=1;exitX=0.5;exitY=0;exitDx=0;exitDy=0;entryX=0.5;entryY=1;entryDx=0;entryDy=0;strokeColor=#999999;align=center;verticalAlign=middle;fontFamily=Helvetica;fontSize=11;fontColor=default;labelBackgroundColor=default;endArrow=classic;startArrow=classic;startFill=1;dashed=1;" edge="1" source="tFcFrUh1cWoHuSt5WJkO-43" target="tFcFrUh1cWoHuSt5WJkO-49" parent="1">
          <mxGeometry relative="1" as="geometry">
            <mxPoint x="1868" y="-615" as="sourcePoint" />
            <mxPoint x="1988" y="-775" as="targetPoint" />
          </mxGeometry>
        </mxCell>
        <mxCell id="tFcFrUh1cWoHuSt5WJkO-56" style="edgeStyle=none;shape=connector;rounded=1;orthogonalLoop=1;jettySize=auto;html=1;exitX=0.5;exitY=0;exitDx=0;exitDy=0;entryX=0.5;entryY=1;entryDx=0;entryDy=0;strokeColor=#999999;align=center;verticalAlign=middle;fontFamily=Helvetica;fontSize=11;fontColor=default;labelBackgroundColor=default;endArrow=classic;startArrow=classic;startFill=1;dashed=1;" edge="1" source="tFcFrUh1cWoHuSt5WJkO-44" target="tFcFrUh1cWoHuSt5WJkO-50" parent="1">
          <mxGeometry relative="1" as="geometry">
            <mxPoint x="2016" y="-605" as="sourcePoint" />
            <mxPoint x="2136" y="-765" as="targetPoint" />
          </mxGeometry>
        </mxCell>
        <mxCell id="tFcFrUh1cWoHuSt5WJkO-57" style="edgeStyle=none;shape=connector;rounded=1;orthogonalLoop=1;jettySize=auto;html=1;entryX=0;entryY=0.5;entryDx=0;entryDy=0;strokeColor=#000000;align=center;verticalAlign=middle;fontFamily=Helvetica;fontSize=11;fontColor=default;labelBackgroundColor=default;endArrow=classic;startArrow=classic;startFill=1;exitX=1;exitY=0.5;exitDx=0;exitDy=0;dashed=1;" edge="1" source="tFcFrUh1cWoHuSt5WJkO-48" target="tFcFrUh1cWoHuSt5WJkO-49" parent="1">
          <mxGeometry relative="1" as="geometry">
            <mxPoint x="1838" y="-805" as="sourcePoint" />
            <mxPoint x="1978" y="-805" as="targetPoint" />
          </mxGeometry>
        </mxCell>
        <mxCell id="tFcFrUh1cWoHuSt5WJkO-58" style="edgeStyle=none;shape=connector;rounded=1;orthogonalLoop=1;jettySize=auto;html=1;entryX=0;entryY=0.5;entryDx=0;entryDy=0;strokeColor=#000000;align=center;verticalAlign=middle;fontFamily=Helvetica;fontSize=11;fontColor=default;labelBackgroundColor=default;endArrow=classic;startArrow=classic;startFill=1;exitX=1;exitY=0.5;exitDx=0;exitDy=0;dashed=1;" edge="1" source="tFcFrUh1cWoHuSt5WJkO-49" target="tFcFrUh1cWoHuSt5WJkO-50" parent="1">
          <mxGeometry relative="1" as="geometry">
            <mxPoint x="1968" y="-735" as="sourcePoint" />
            <mxPoint x="2108" y="-735" as="targetPoint" />
          </mxGeometry>
        </mxCell>
        <mxCell id="tFcFrUh1cWoHuSt5WJkO-59" style="edgeStyle=none;shape=connector;rounded=1;orthogonalLoop=1;jettySize=auto;html=1;entryX=0;entryY=0.5;entryDx=0;entryDy=0;strokeColor=#000000;align=center;verticalAlign=middle;fontFamily=Helvetica;fontSize=11;fontColor=default;labelBackgroundColor=default;endArrow=classic;startArrow=classic;startFill=1;dashed=1;" edge="1" parent="1" source="tFcFrUh1cWoHuSt5WJkO-8" target="tFcFrUh1cWoHuSt5WJkO-9">
          <mxGeometry relative="1" as="geometry">
            <mxPoint x="1530" y="-1150" as="sourcePoint" />
            <mxPoint x="1670" y="-1150" as="targetPoint" />
          </mxGeometry>
        </mxCell>
        <mxCell id="tFcFrUh1cWoHuSt5WJkO-60" style="edgeStyle=none;shape=connector;rounded=1;orthogonalLoop=1;jettySize=auto;html=1;entryX=0;entryY=0.5;entryDx=0;entryDy=0;strokeColor=#000000;align=center;verticalAlign=middle;fontFamily=Helvetica;fontSize=11;fontColor=default;labelBackgroundColor=default;endArrow=classic;startArrow=classic;startFill=1;exitX=1;exitY=0.5;exitDx=0;exitDy=0;dashed=1;" edge="1" parent="1" source="tFcFrUh1cWoHuSt5WJkO-9" target="tFcFrUh1cWoHuSt5WJkO-10">
          <mxGeometry relative="1" as="geometry">
            <mxPoint x="1670" y="-970" as="sourcePoint" />
            <mxPoint x="1810" y="-970" as="targetPoint" />
          </mxGeometry>
        </mxCell>
        <mxCell id="tFcFrUh1cWoHuSt5WJkO-61" style="edgeStyle=none;shape=connector;rounded=1;orthogonalLoop=1;jettySize=auto;html=1;entryX=0;entryY=0.5;entryDx=0;entryDy=0;strokeColor=#000000;align=center;verticalAlign=middle;fontFamily=Helvetica;fontSize=11;fontColor=default;labelBackgroundColor=default;endArrow=classic;startArrow=classic;startFill=1;exitX=1;exitY=0.5;exitDx=0;exitDy=0;dashed=1;" edge="1" parent="1" source="tFcFrUh1cWoHuSt5WJkO-10" target="tFcFrUh1cWoHuSt5WJkO-11">
          <mxGeometry relative="1" as="geometry">
            <mxPoint x="1920" y="-960" as="sourcePoint" />
            <mxPoint x="2060" y="-960" as="targetPoint" />
          </mxGeometry>
        </mxCell>
        <mxCell id="tFcFrUh1cWoHuSt5WJkO-62" style="edgeStyle=none;shape=connector;rounded=1;orthogonalLoop=1;jettySize=auto;html=1;entryX=0;entryY=0.5;entryDx=0;entryDy=0;strokeColor=#000000;align=center;verticalAlign=middle;fontFamily=Helvetica;fontSize=11;fontColor=default;labelBackgroundColor=default;endArrow=classic;startArrow=classic;startFill=1;exitX=1;exitY=0.5;exitDx=0;exitDy=0;dashed=1;" edge="1" parent="1" source="tFcFrUh1cWoHuSt5WJkO-11" target="tFcFrUh1cWoHuSt5WJkO-12">
          <mxGeometry relative="1" as="geometry">
            <mxPoint x="2130" y="-940" as="sourcePoint" />
            <mxPoint x="2270" y="-940" as="targetPoint" />
          </mxGeometry>
        </mxCell>
        <mxCell id="tFcFrUh1cWoHuSt5WJkO-63" style="edgeStyle=none;shape=connector;rounded=1;orthogonalLoop=1;jettySize=auto;html=1;exitX=0.5;exitY=1;exitDx=0;exitDy=0;strokeColor=#999999;align=center;verticalAlign=middle;fontFamily=Helvetica;fontSize=11;fontColor=default;labelBackgroundColor=default;endArrow=classic;startArrow=classic;startFill=1;dashed=1;" edge="1" parent="1" source="tFcFrUh1cWoHuSt5WJkO-8">
          <mxGeometry relative="1" as="geometry">
            <mxPoint x="1410" y="-983" as="sourcePoint" />
            <mxPoint x="1310" y="-850" as="targetPoint" />
          </mxGeometry>
        </mxCell>
        <mxCell id="tFcFrUh1cWoHuSt5WJkO-64" style="edgeStyle=none;shape=connector;rounded=1;orthogonalLoop=1;jettySize=auto;html=1;exitX=0.5;exitY=1;exitDx=0;exitDy=0;strokeColor=#999999;align=center;verticalAlign=middle;fontFamily=Helvetica;fontSize=11;fontColor=default;labelBackgroundColor=default;endArrow=classic;startArrow=classic;startFill=1;entryX=0.5;entryY=0;entryDx=0;entryDy=0;dashed=1;" edge="1" parent="1" source="tFcFrUh1cWoHuSt5WJkO-9" target="tFcFrUh1cWoHuSt5WJkO-47">
          <mxGeometry relative="1" as="geometry">
            <mxPoint x="1500" y="-983" as="sourcePoint" />
            <mxPoint x="1400" y="-850" as="targetPoint" />
          </mxGeometry>
        </mxCell>
        <mxCell id="tFcFrUh1cWoHuSt5WJkO-65" style="edgeStyle=none;shape=connector;rounded=1;orthogonalLoop=1;jettySize=auto;html=1;exitX=0.5;exitY=1;exitDx=0;exitDy=0;strokeColor=#999999;align=center;verticalAlign=middle;fontFamily=Helvetica;fontSize=11;fontColor=default;labelBackgroundColor=default;endArrow=classic;startArrow=classic;startFill=1;entryX=0.5;entryY=0;entryDx=0;entryDy=0;dashed=1;" edge="1" parent="1" source="tFcFrUh1cWoHuSt5WJkO-10" target="tFcFrUh1cWoHuSt5WJkO-48">
          <mxGeometry relative="1" as="geometry">
            <mxPoint x="1800" y="-970" as="sourcePoint" />
            <mxPoint x="1698" y="-842" as="targetPoint" />
          </mxGeometry>
        </mxCell>
        <mxCell id="tFcFrUh1cWoHuSt5WJkO-66" style="edgeStyle=none;shape=connector;rounded=1;orthogonalLoop=1;jettySize=auto;html=1;exitX=0.5;exitY=1;exitDx=0;exitDy=0;strokeColor=#999999;align=center;verticalAlign=middle;fontFamily=Helvetica;fontSize=11;fontColor=default;labelBackgroundColor=default;endArrow=classic;startArrow=classic;startFill=1;entryX=0.5;entryY=0;entryDx=0;entryDy=0;dashed=1;" edge="1" parent="1" source="tFcFrUh1cWoHuSt5WJkO-11" target="tFcFrUh1cWoHuSt5WJkO-49">
          <mxGeometry relative="1" as="geometry">
            <mxPoint x="2022" y="-983" as="sourcePoint" />
            <mxPoint x="1920" y="-855" as="targetPoint" />
          </mxGeometry>
        </mxCell>
        <mxCell id="tFcFrUh1cWoHuSt5WJkO-67" style="edgeStyle=none;shape=connector;rounded=1;orthogonalLoop=1;jettySize=auto;html=1;exitX=0.5;exitY=1;exitDx=0;exitDy=0;strokeColor=#999999;align=center;verticalAlign=middle;fontFamily=Helvetica;fontSize=11;fontColor=default;labelBackgroundColor=default;endArrow=classic;startArrow=classic;startFill=1;entryX=0.5;entryY=0;entryDx=0;entryDy=0;dashed=1;" edge="1" parent="1" source="tFcFrUh1cWoHuSt5WJkO-12" target="tFcFrUh1cWoHuSt5WJkO-50">
          <mxGeometry relative="1" as="geometry">
            <mxPoint x="2242" y="-970" as="sourcePoint" />
            <mxPoint x="2140" y="-842" as="targetPoint" />
          </mxGeometry>
        </mxCell>
        <mxCell id="tFcFrUh1cWoHuSt5WJkO-68" style="edgeStyle=none;shape=connector;rounded=1;orthogonalLoop=1;jettySize=auto;html=1;entryX=0;entryY=0.5;entryDx=0;entryDy=0;strokeColor=#000000;align=center;verticalAlign=middle;fontFamily=Helvetica;fontSize=11;fontColor=default;labelBackgroundColor=default;endArrow=classic;startArrow=classic;startFill=1;exitX=1;exitY=0.5;exitDx=0;exitDy=0;dashed=1;" edge="1" parent="1" source="tFcFrUh1cWoHuSt5WJkO-43" target="tFcFrUh1cWoHuSt5WJkO-44">
          <mxGeometry relative="1" as="geometry">
            <mxPoint x="2050" y="-740" as="sourcePoint" />
            <mxPoint x="2190" y="-740" as="targetPoint" />
          </mxGeometry>
        </mxCell>
        <mxCell id="tFcFrUh1cWoHuSt5WJkO-69" style="edgeStyle=none;shape=connector;rounded=1;orthogonalLoop=1;jettySize=auto;html=1;entryX=0;entryY=0.5;entryDx=0;entryDy=0;strokeColor=#000000;align=center;verticalAlign=middle;fontFamily=Helvetica;fontSize=11;fontColor=default;labelBackgroundColor=default;endArrow=classic;startArrow=classic;startFill=1;exitX=1;exitY=0.5;exitDx=0;exitDy=0;dashed=1;" edge="1" parent="1" source="tFcFrUh1cWoHuSt5WJkO-42" target="tFcFrUh1cWoHuSt5WJkO-43">
          <mxGeometry relative="1" as="geometry">
            <mxPoint x="1770" y="-710" as="sourcePoint" />
            <mxPoint x="1910" y="-710" as="targetPoint" />
          </mxGeometry>
        </mxCell>
        <mxCell id="tFcFrUh1cWoHuSt5WJkO-70" style="edgeStyle=none;shape=connector;rounded=1;orthogonalLoop=1;jettySize=auto;html=1;entryX=0;entryY=0.5;entryDx=0;entryDy=0;strokeColor=#000000;align=center;verticalAlign=middle;fontFamily=Helvetica;fontSize=11;fontColor=default;labelBackgroundColor=default;endArrow=classic;startArrow=classic;startFill=1;exitX=1;exitY=0.5;exitDx=0;exitDy=0;dashed=1;" edge="1" parent="1" source="tFcFrUh1cWoHuSt5WJkO-41" target="tFcFrUh1cWoHuSt5WJkO-42">
          <mxGeometry relative="1" as="geometry">
            <mxPoint x="1540" y="-520" as="sourcePoint" />
            <mxPoint x="1680" y="-520" as="targetPoint" />
          </mxGeometry>
        </mxCell>
        <mxCell id="tFcFrUh1cWoHuSt5WJkO-71" style="edgeStyle=none;shape=connector;rounded=1;orthogonalLoop=1;jettySize=auto;html=1;entryX=0;entryY=0.5;entryDx=0;entryDy=0;strokeColor=#000000;align=center;verticalAlign=middle;fontFamily=Helvetica;fontSize=11;fontColor=default;labelBackgroundColor=default;endArrow=classic;startArrow=classic;startFill=1;exitX=1;exitY=0.5;exitDx=0;exitDy=0;dashed=1;" edge="1" parent="1" source="tFcFrUh1cWoHuSt5WJkO-40" target="tFcFrUh1cWoHuSt5WJkO-41">
          <mxGeometry relative="1" as="geometry">
            <mxPoint x="1450" y="-520" as="sourcePoint" />
            <mxPoint x="1590" y="-520" as="targetPoint" />
          </mxGeometry>
        </mxCell>
      </root>
    </mxGraphModel>
  </diagram>
  <diagram id="d72IP4JX9LEJINm_eAVq" name="第 6 页">
    <mxGraphModel dx="2625" dy="1573" grid="1" gridSize="10" guides="1" tooltips="1" connect="1" arrows="1" fold="1" page="1" pageScale="1" pageWidth="1169" pageHeight="827" math="0" shadow="0">
      <root>
        <mxCell id="0" />
        <mxCell id="1" parent="0" />
      </root>
    </mxGraphModel>
  </diagram>
</mxfile>
